<?xml version="1.0" encoding="iso-8859-1"?>
<!-- Generator: Adobe Illustrator 19.0.0, SVG Export Plug-In . SVG Version: 6.00 Build 0)  -->
<svg version="1.1" id="Capa_1" xmlns="http://www.w3.org/2000/svg" xmlns:xlink="http://www.w3.org/1999/xlink" x="0px" y="0px"
	 viewBox="0 0 512 512" style="enable-background:new 0 0 512 512;" xml:space="preserve">
<circle style="fill:#FFD863;" cx="256" cy="256" r="256"/>
<path style="fill:#FFCF35;" d="M509.437,292.226L308.548,91.337l-106.214,4.996l-10.589,172.624L83.823,343.485l168.468,168.468
	C253.527,511.971,254.76,512,256,512C385.085,512,491.837,416.453,509.437,292.226z"/>
<path style="fill:#005C83;" d="M400.405,354.807h-288.81c-23.504,0-41.398-19.843-37.58-41.673l7.121-40.719
	c10.173-58.175,63.599-100.862,126.234-100.862h97.26c62.636,0,116.061,42.687,126.234,100.862l7.121,40.719
	C441.803,334.964,423.909,354.807,400.405,354.807z"/>
<path style="fill:#00263F;" d="M437.985,313.134l-7.121-40.719C420.69,214.24,367.265,171.553,304.63,171.553h-48.963v183.254
	h144.738C423.909,354.807,441.803,334.964,437.985,313.134z"/>
<path style="fill:#0074A3;" d="M291.28,329.523h-70.56c-18.568,0-33.621-15.053-33.621-33.621v-53.818h137.802v53.818
	C324.901,314.471,309.848,329.523,291.28,329.523z"/>
<path style="fill:#005C83;" d="M255.667,242.084v87.44h35.613c18.568,0,33.621-15.053,33.621-33.621v-53.819L255.667,242.084
	L255.667,242.084z"/>
<path style="fill:#008CC3;" d="M333.263,354.807h-23V145.095c0-27.792-24.342-50.402-54.263-50.402s-54.263,22.61-54.263,50.402
	v209.711h-23V145.095c0-40.474,34.66-73.402,77.263-73.402s77.263,32.928,77.263,73.402V354.807z"/>
<path style="fill:#0074A3;" d="M256,71.693c-0.112,0-0.222,0.008-0.333,0.008v23c0.112,0,0.221-0.008,0.333-0.008
	c29.921,0,54.263,22.61,54.263,50.402v209.711h23V145.095C333.263,104.621,298.603,71.693,256,71.693z"/>
<g>
</g>
<g>
</g>
<g>
</g>
<g>
</g>
<g>
</g>
<g>
</g>
<g>
</g>
<g>
</g>
<g>
</g>
<g>
</g>
<g>
</g>
<g>
</g>
<g>
</g>
<g>
</g>
<g>
</g>
</svg>
